<?xml version="1.0" encoding="utf-8"?>
<!-- Generator: Adobe Illustrator 16.0.3, SVG Export Plug-In . SVG Version: 6.00 Build 0)  -->
<!DOCTYPE svg PUBLIC "-//W3C//DTD SVG 1.1//EN" "http://www.w3.org/Graphics/SVG/1.1/DTD/svg11.dtd">
<svg version="1.1" id="Layer_1" xmlns="http://www.w3.org/2000/svg" xmlns:xlink="http://www.w3.org/1999/xlink" x="0px" y="0px"
	 width="191.86px" height="191.86px" viewBox="0 0 790.698 191.86" enable-background="new 0 0 790.698 191.86"
	 xml:space="preserve">
<path fill="#fff" d="M147.769,102.342c3.619-6.629,4.194-12.954,4.194-16.404c0-14.104-10.384-25.772-23.913-27.802
	c-5.175-35.615-34.634-46.202-34.973-46.337c-0.676-0.237-1.453,0.034-1.826,0.643c-0.372,0.609-0.304,1.42,0.237,1.928
	c2.908,2.909,4.126,5.581,3.721,8.186c-0.947,6.324-11.365,11.837-19.719,16.234c-1.962,1.048-3.856,2.029-5.547,3.01
	c-3.619,2.063-7.475,3.923-11.229,5.716c-12.92,6.224-26.178,12.616-30.203,28.073c-1.251,3.179-1.962,6.663-1.962,10.282
	c0,2.942,0.507,9.132,3.991,15.795c-12.886,4.397-22.188,16.641-22.188,31.049c0,9.64,3.585,33.281,36.731,44.883
	c15.322,5.344,31.996,6.46,43.259,6.46c58.986,0,79.99-26.517,79.99-51.343C168.366,118.982,159.843,107.178,147.769,102.342z"/>
</svg>
